<svg width="32" height="32" viewBox="0 0 32 32" fill="none" xmlns="http://www.w3.org/2000/svg">
<g id="Container=None, Appearance=Outlined">
<g id="symbol">
<mask id="path-1-inside-1_1306_32901" fill="white">
<path d="M25.5828 19.7723C25.759 19.3552 25.2944 18.9782 24.8778 19.1557C23.7749 19.6254 22.5611 19.8853 21.2866 19.8853C16.2211 19.8853 12.1147 15.7789 12.1147 10.7134C12.1147 9.43889 12.3746 8.22513 12.8444 7.12221C13.0218 6.70563 12.6448 6.24097 12.2278 6.4172C8.56816 7.96346 6 11.5863 6 15.8089C6 21.4373 10.5627 26 16.1911 26C20.4137 26 24.0365 23.4318 25.5828 19.7723Z"/>
</mask>
<path d="M24.8778 19.1557L25.6615 20.9957L24.8778 19.1557ZM25.5828 19.7723L23.7405 18.9938L25.5828 19.7723ZM24.0941 17.3156C23.2344 17.6817 22.2869 17.8853 21.2866 17.8853V21.8853C22.8353 21.8853 24.3153 21.5691 25.6615 20.9957L24.0941 17.3156ZM21.2866 17.8853C17.3257 17.8853 14.1147 14.6743 14.1147 10.7134H10.1147C10.1147 16.8835 15.1165 21.8853 21.2866 21.8853V17.8853ZM14.1147 10.7134C14.1147 9.71311 14.3183 8.76557 14.6844 7.90592L11.0043 6.3385C10.4309 7.6847 10.1147 9.16468 10.1147 10.7134H14.1147ZM8 15.8089C8 12.4181 10.0608 9.50399 13.0062 8.2595L11.4493 4.5749C7.07552 6.42294 4 10.7545 4 15.8089H8ZM16.1911 24C11.6673 24 8 20.3327 8 15.8089H4C4 22.5419 9.45814 28 16.1911 28V24ZM23.7405 18.9938C22.496 21.9392 19.5819 24 16.1911 24V28C21.2456 28 25.5771 24.9245 27.4251 20.5507L23.7405 18.9938ZM14.6844 7.90592C15.0913 6.95056 14.8613 5.9331 14.2833 5.25263C13.6748 4.53617 12.5725 4.10032 11.4493 4.5749L13.0062 8.2595C12.3001 8.55785 11.5949 8.26622 11.2347 7.84218C10.9051 7.45412 10.7748 6.87728 11.0043 6.3385L14.6844 7.90592ZM25.6615 20.9957C25.1227 21.2252 24.5459 21.0949 24.1578 20.7653C23.7338 20.4051 23.4421 19.7 23.7405 18.9938L27.4251 20.5507C27.8997 19.4275 27.4638 18.3253 26.7474 17.7167C26.0669 17.1387 25.0494 16.9087 24.0941 17.3156L25.6615 20.9957Z" fill="black" mask="url(#path-1-inside-1_1306_32901)"/>
</g>
</g>
</svg>
