<svg width="32" height="32" viewBox="0 0 32 32" fill="none" xmlns="http://www.w3.org/2000/svg">
<path fill-rule="evenodd" clip-rule="evenodd" d="M24.8778 19.1557C25.2944 18.9782 25.759 19.3552 25.5828 19.7723C24.0365 23.4318 20.4137 26 16.1911 26C10.5627 26 6 21.4373 6 15.8089C6 11.5863 8.56816 7.96346 12.2278 6.4172C12.6448 6.24097 13.0218 6.70563 12.8444 7.12221C12.3746 8.22513 12.1147 9.43889 12.1147 10.7134C12.1147 15.7789 16.2211 19.8853 21.2866 19.8853C22.5611 19.8853 23.7749 19.6254 24.8778 19.1557ZM21.2866 21.8878C21.4224 21.8878 21.5578 21.8854 21.6925 21.8805C20.2377 23.1999 18.3072 24.0025 16.1911 24.0025C11.6673 24.0025 8 20.3352 8 15.8114C8 13.6953 8.80261 11.7648 10.122 10.31C10.1171 10.4447 10.1147 10.5801 10.1147 10.7159C10.1147 16.886 15.1165 21.8878 21.2866 21.8878Z" fill="black"/>
</svg>
