<svg width="32" height="32" viewBox="0 0 32 32" fill="none" xmlns="http://www.w3.org/2000/svg">
<g id="Container=None, Appearance=Outlined">
<path id="symbol" fill-rule="evenodd" clip-rule="evenodd" d="M16 4.5C16.5523 4.5 17 4.94772 17 5.5V8.06189C16.6724 8.02104 16.3387 8 16 8C15.6613 8 15.3276 8.02104 15 8.06189V5.5C15 4.94772 15.4477 4.5 16 4.5ZM20.9055 9.68004C21.4337 10.0906 21.9091 10.566 22.3198 11.0942L24.1315 9.28248C24.522 8.89196 24.522 8.2588 24.1315 7.86827C23.741 7.47775 23.1078 7.47775 22.7173 7.86827L20.9055 9.68004ZM24 16C24 16.3387 23.979 16.6724 23.9381 17H26.5C27.0523 17 27.5 16.5523 27.5 16C27.5 15.4477 27.0523 15 26.5 15H23.9381C23.979 15.3276 24 15.6613 24 16ZM22.3198 20.9057C21.9092 21.4339 21.4338 21.9093 20.9056 22.3199L22.7174 24.1317C23.1079 24.5223 23.7411 24.5223 24.1316 24.1317C24.5221 23.7412 24.5221 23.108 24.1316 22.7175L22.3198 20.9057ZM16 24C15.6613 24 15.3276 23.979 15 23.9381V26.5C15 27.0523 15.4477 27.5 16 27.5C16.5523 27.5 17 27.0523 17 26.5V23.9381C16.6724 23.979 16.3387 24 16 24ZM11.0942 22.3198C10.566 21.9091 10.0906 21.4337 9.68004 20.9055L7.86804 22.7175C7.47752 23.108 7.47752 23.7412 7.86804 24.1317C8.25857 24.5223 8.89173 24.5223 9.28226 24.1317L11.0942 22.3198ZM8 16C8 15.6613 8.02104 15.3276 8.06189 15H5.5C4.94772 15 4.5 15.4477 4.5 16C4.5 16.5523 4.94772 17 5.5 17H8.06189C8.02104 16.6724 8 16.3387 8 16ZM9.68009 11.0944C10.0907 10.5662 10.5661 10.0908 11.0943 9.68019L9.28238 7.86827C8.89185 7.47775 8.25869 7.47775 7.86816 7.86827C7.47764 8.2588 7.47764 8.89196 7.86816 9.28249L9.68009 11.0944ZM20 16C20 18.2091 18.2091 20 16 20C13.7909 20 12 18.2091 12 16C12 13.7909 13.7909 12 16 12C18.2091 12 20 13.7909 20 16ZM22 16C22 19.3137 19.3137 22 16 22C12.6863 22 10 19.3137 10 16C10 12.6863 12.6863 10 16 10C19.3137 10 22 12.6863 22 16Z" fill="black"/>
</g>
</svg>
